<?xml version="1.0" encoding="utf-8"?>
<!-- Generator: Adobe Illustrator 17.1.0, SVG Export Plug-In . SVG Version: 6.00 Build 0)  -->
<!DOCTYPE svg PUBLIC "-//W3C//DTD SVG 1.1//EN" "http://www.w3.org/Graphics/SVG/1.1/DTD/svg11.dtd">
<svg version="1.1" id="Ebene_1" xmlns="http://www.w3.org/2000/svg" xmlns:xlink="http://www.w3.org/1999/xlink" x="0px" y="0px"
	 width="51px" height="25px" viewBox="0 0 51 25" enable-background="new 0 0 51 25" xml:space="preserve">
<path fill-opacity="0" d="M0,0.5V25h44.5c3.5,0,6.5-3,6.5-6.5v-18H0L0,0.5z"/>
<path fill="#FFFFFF" d="M0,0v24.5h44.5c3.5,0,6.5-3,6.5-6.5V0H0L0,0z"/>
<polygon fill="#003468" points="0.5,0.5 0.5,12 50.5,12 50.5,0.5 "/>
<path fill="#FF7500" d="M0.5,24h44c3,0,6-3,6-6v-5.5h-50V24L0.5,24z"/>
<g>
	<path fill="#003468" d="M4.9,21.7L4.9,21.7c-1.1,0-2-0.7-2-1.9c0-0.7,1.1-0.7,1.1,0c0,0.5,0.3,0.8,0.8,0.8h0.1
		c0.5,0,0.8-0.2,0.8-0.7c0-1.2-2.8-1.3-2.8-3c0-0.1,0-0.1,0-0.2c0-1,1-1.6,1.8-1.6h0.1c1,0,1.8,0.6,1.8,1.5c0,0.7-1.1,0.7-1.1,0
		c0-0.2-0.3-0.5-0.8-0.5H4.8c-0.4,0-0.7,0.2-0.7,0.6c0,0.1,0,0,0,0.1c0,0.8,2.8,1.1,2.8,3C6.8,21,6,21.7,4.9,21.7L4.9,21.7z"/>
	<path fill="#003468" d="M9.7,21.7L9.7,21.7c-1.1,0-2-0.8-2-1.9v-3c0-1.1,0.9-1.9,1.9-1.9h0.1c1,0,1.8,0.7,1.9,1.6c0,0,0,0.1,0,0.1
		c0,0.3-0.3,0.5-0.6,0.5c-0.2,0-0.5-0.2-0.5-0.5c-0.1-0.4-0.4-0.6-0.8-0.6H9.6c-0.4,0-0.8,0.3-0.8,0.8v3c0,0.4,0.4,0.8,0.8,0.8h0.1
		c0.4,0,0.7-0.3,0.8-0.6c0-0.3,0.3-0.5,0.5-0.5c0.3,0,0.6,0.2,0.6,0.5c0,0,0,0.1,0,0.1C11.4,21,10.6,21.7,9.7,21.7L9.7,21.7z"/>
	<path fill="#003468" d="M14.3,21.7L14.3,21.7c-1.1,0-2-0.8-2-1.9v-3c0-1.1,0.9-1.9,1.9-1.9h0.1c1.1,0,1.9,0.8,1.9,1.9v2.9
		C16.2,20.9,15.4,21.7,14.3,21.7L14.3,21.7z M15.1,16.9c0-0.4-0.4-0.8-0.8-0.8h-0.1c-0.4,0-0.8,0.3-0.8,0.8v2.9
		c0,0.4,0.4,0.8,0.8,0.8h0.1c0.4,0,0.8-0.3,0.8-0.8V16.9L15.1,16.9z"/>
	<path fill="#003468" d="M19.3,21.7L19.3,21.7c-1.1,0-2-0.9-2-1.9v-4.2c0-0.4,0.3-0.6,0.5-0.6c0.3,0,0.5,0.2,0.5,0.6v4.2
		c0,0.4,0.4,0.8,0.8,0.8h0.1c0.4,0,0.8-0.4,0.8-0.8v-4.2c0-0.4,0.3-0.6,0.5-0.6c0.3,0,0.5,0.2,0.5,0.6v4.2
		C21.2,20.8,20.4,21.7,19.3,21.7L19.3,21.7z"/>
	<path fill="#003468" d="M25.1,16.2h-0.8v5c0,0.4-0.3,0.5-0.5,0.5s-0.5-0.2-0.5-0.5v-5h-0.8c-0.4,0-0.5-0.3-0.5-0.6
		c0-0.3,0.2-0.5,0.5-0.5h2.6c0.4,0,0.5,0.3,0.5,0.5C25.7,15.9,25.5,16.2,25.1,16.2L25.1,16.2z"/>
	<path fill="#003468" d="M30.2,21.6h-2.5c-0.4,0-0.6-0.3-0.6-0.7c0-0.1,0-0.2,0.1-0.3l2.1-3.5c0.1-0.2,0.1-0.3,0.1-0.4v-0.1
		c0-0.3-0.2-0.5-0.6-0.5h0c-0.3,0-0.5,0.2-0.5,0.5v0.1c0,0.4-0.3,0.5-0.5,0.5c-0.3,0-0.5-0.2-0.5-0.5v-0.1c0-0.9,0.7-1.6,1.6-1.6h0
		c0.9,0,1.7,0.7,1.7,1.6l0,0.1c0,0.4-0.1,0.7-0.3,1l-1.7,2.8h1.6c0.4,0,0.5,0.3,0.5,0.5C30.8,21.4,30.6,21.6,30.2,21.6L30.2,21.6z"
		/>
	<path fill="#003468" d="M34.5,20.3h-0.2v0.8c0,0.4-0.3,0.5-0.5,0.5c-0.3,0-0.5-0.2-0.5-0.5v-0.8h-1.5c-0.4,0-0.6-0.2-0.6-0.6
		c0-0.1,0-0.2,0.1-0.3l1.8-4.1c0.1-0.2,0.3-0.3,0.5-0.3c0.3,0,0.6,0.2,0.6,0.5c0,0.1,0,0.2,0,0.2l-1.6,3.5h0.8v-0.5
		c0-0.4,0.3-0.5,0.5-0.5c0.3,0,0.5,0.2,0.5,0.5v0.5h0.2c0.4,0,0.5,0.3,0.5,0.5C35.1,20.1,34.9,20.3,34.5,20.3L34.5,20.3z"/>
</g>
<path fill="#FFFFFF" d="M7.3,9.6C7,9.6,6.8,9.5,6.8,9.2L6.4,8.1H4.5L4.2,9.2C4.1,9.5,3.9,9.6,3.7,9.6c-0.3,0-0.6-0.2-0.6-0.5
	c0-0.1,0-0.1,0-0.2l1.7-5.5C5,3,5.2,3,5.5,3c0.2,0,0.5,0,0.6,0.5l1.7,5.5c0,0.1,0,0.1,0,0.2C7.8,9.4,7.5,9.6,7.3,9.6L7.3,9.6z
	 M5.5,5L4.9,7h1.2L5.5,5L5.5,5z"/>
<path fill="#FFFFFF" d="M10.6,9.6L10.6,9.6c-1.1,0-2-0.9-2-1.9V3.5C8.6,3.1,8.9,3,9.1,3c0.3,0,0.5,0.2,0.5,0.5v4.2
	c0,0.4,0.4,0.8,0.8,0.8h0.1c0.4,0,0.8-0.4,0.8-0.8V3.5c0-0.4,0.3-0.5,0.5-0.5s0.5,0.2,0.5,0.5v4.2C12.5,8.8,11.6,9.6,10.6,9.6
	L10.6,9.6z"/>
<path fill="#FFFFFF" d="M16.5,4.1h-0.8v5c0,0.4-0.3,0.6-0.6,0.6c-0.3,0-0.5-0.2-0.5-0.6v-5h-0.8c-0.4,0-0.5-0.3-0.5-0.5
	c0-0.3,0.2-0.5,0.5-0.5h2.6C16.8,3,17,3.3,17,3.6C17,3.8,16.8,4.1,16.5,4.1L16.5,4.1z"/>
<path fill="#FFFFFF" d="M19.6,9.6L19.6,9.6c-1.1,0-2-0.8-2-1.9v-3c0-1.1,0.9-1.9,1.9-1.9h0.1c1.1,0,1.9,0.8,1.9,1.9v2.9
	C21.5,8.8,20.7,9.6,19.6,9.6L19.6,9.6z M20.4,4.8c0-0.4-0.4-0.8-0.8-0.8h-0.1c-0.4,0-0.8,0.3-0.8,0.8v2.9c0,0.4,0.4,0.8,0.8,0.8h0.1
	c0.4,0,0.8-0.3,0.8-0.8V4.8L20.4,4.8z"/>
</svg>
